<svg width="128" height="49" viewBox="0 0 128 49" fill="none" xmlns="http://www.w3.org/2000/svg">
<path fill-rule="evenodd" clip-rule="evenodd" d="M8 11H4V12.6195V38.7984C5.07129 38.5036 6.41338 38.2198 8 37.9492V21.6533L14.8073 37.0273C16.4211 36.8502 18.1558 36.6823 20 36.5246V11H16V29.6832L8 11ZM38 35.4538C32.9441 35.6503 28.2412 35.9059 24 36.2108V11H28H38V15H28V22H36V26H28V32H38V35.4538ZM52 35.0798C50.6511 35.1006 49.3173 35.1253 48 35.1537V15H41V11H48H52H59V15H52V35.0798ZM67 35.0145C65.6778 35.0059 64.344 35.0011 63 35.0002V11H67H77V15H67V21H74V25H67V35.0145ZM95 35.8298C90.6648 35.588 85.9685 35.3932 81 35.2532V11H85V32H95V35.8298ZM103 36.3609C101.713 36.2601 100.379 36.164 99 36.073V11H103V36.3609ZM112.092 37.2466C110.891 37.1005 109.612 36.9599 108.259 36.8252L113.117 24.5745L107.5 11H111.5L115.074 19.6383L118.5 11H122.5L117.117 24.5745L123.383 39.7182C122.581 39.2138 121.013 38.7314 118.789 38.2809L115.16 29.5106L112.092 37.2466Z" fill="#FE0000"/>
</svg>
